<?xml version="1.0" encoding="UTF-8"?>
<COLLADA xmlns="http://www.collada.org/2005/11/COLLADASchema" version="1.4.1">
    <asset>
        <contributor>
            <author>VCGLab</author>
            <authoring_tool>VCGLib | MeshLab</authoring_tool>
        </contributor>
        <created>Sat May 16 12:44:54 2026 GMT</created>
        <modified>Sat May 16 12:44:54 2026 GMT</modified>
        <up_axis>Y_UP</up_axis>
    </asset>
    <library_geometries>
        <geometry id="shape0-lib" name="shape0">
            <mesh>
                <source id="shape0-lib-positions" name="position">
                    <float_array id="shape0-lib-positions-array" count="273">0.0522713 -0.129143 1.72698 0.0715449 -0.107311 1.84669 0.0657251 0.0019387 0.438792 -0.0803239 -0.193316 0.0218172 -0.0703738 -0.0320706 0.0581825 0.112057 0.0575637 0.428522 -0.185006 -0.0112385 0.0586424 -0.103094 -0.1053 0.0900146 -0.12457 0.0600869 0.0653807 -0.153559 -0.00784344 0.157801 -0.157165 -0.0363394 -0.00154887 -0.171038 0.0673299 0.392275 -0.258743 -0.0190646 1.32842 -0.185782 0.0164713 1.3629 0.0705585 -0.00034847 1.71563 -0.215781 0.0324153 1.54714 -0.247565 -0.0833974 1.53359 0.164583 0.0455085 1.38942 0.0168169 -0.108299 1.65861 -0.0453912 0.0147271 1.64425 0.188071 -0.07578 1.44315 -0.0305918 -0.114977 1.89548 0.0249827 0.0740174 1.60293 0.0813913 -0.179643 1.43234 -0.0187549 -0.0749716 1.71042 0.232106 0.0518727 1.37422 0.0537078 -0.0653495 1.59767 0.0531485 0.0580254 1.85857 -0.0872133 0.0125839 1.86003 0.249383 -0.0416844 1.3674 0.251454 -0.0196934 1.57412 -0.0627566 -0.107079 1.74457 -0.0322432 0.0779624 1.77079 -0.044392 -0.0665876 1.59638 0.1186 0.116627 1.53416 -0.0960402 0.096834 1.36407 -0.128587 -0.158737 1.45741 -0.186241 -0.0881009 1.40907 0.192585 -0.0908324 1.00028 -0.224627 -0.113292 0.85865 -0.00243608 -0.0817995 0.888911 -0.0032688 0.023276 0.89604 0.169813 -0.0750517 1.11149 0.268498 -0.041171 1.04907 0.154965 0.045815 1.08098 0.100517 0.0640975 1.15692 0.202101 -0.0891637 0.856888 -0.0495208 0.0806732 1.14752 0.182759 -0.0235469 1.15022 0.10786 -0.141886 1.17887 0.155575 -0.0468383 1.21745 0.227513 -0.0274999 0.930915 -0.0284811 -0.0384534 0.636744 0.236057 -0.0930352 0.869283 -0.0208163 0.104922 0.965426 -0.136038 0.0373869 0.624172 0.109229 0.0692511 0.880749 -0.166542 -0.0311899 1.25161 0.0907567 0.107051 1.00299 0.0940913 -0.143209 0.69254 0.0953803 -0.0872082 0.412427 -0.226651 -0.0182984 1.1076 0.169062 0.0510601 0.982922 0.181098 0.00118945 0.630528 -0.158873 0.069663 1.01131 -0.198685 -0.0255111 0.947155 -0.127253 -0.131719 0.966644 -0.216941 -0.0682014 0.939693 -0.190953 -0.0637763 1.03408 -0.0606749 -0.158003 1.08494 0.0622996 -0.138859 0.948801 -0.268837 -0.08661 1.0693 0.135873 0.0353222 0.62477 0.0851719 0.0251571 0.614385 0.119794 0.024434 0.00522114 0.191688 -0.0627438 0.081278 -0.0523582 0.00719019 0.536746 0.101942 0.0252206 0.0635216 -0.0745695 -0.0601463 0.386837 -0.0948819 -0.123127 0.598981 0.215471 0.0249068 0.439237 0.133997 -0.0207399 0.179487 0.151421 -0.107185 0.0717071 -0.198515 -0.0140757 0.516587 0.174158 0.0362919 0.0625574 -0.162729 -0.0887289 0.312164 -0.177032 -0.0885842 0.690161 0.155359 -0.104765 0.498 0.070674 -0.0779568 0.079916 0.0902023 -0.183628 0.0273522 0.182216 -0.133173 0.00575177</float_array>
                    <technique_common>
                        <accessor count="91" source="#shape0-lib-positions-array" stride="3">
                            <param name="X" type="float"/>
                            <param name="Y" type="float"/>
                            <param name="Z" type="float"/>
                        </accessor>
                    </technique_common>
                </source>
                <source id="shape0-lib-normals" name="normal">
                    <float_array id="shape0-lib-normals-array" count="597">-0.616291 -0.783365 0.0807693 0.99144 0.104706 0.0779932 0.432051 -0.0167575 0.901694 -0.0674614 0.239301 0.968599 -0.9169 -0.357877 0.176687 -0.981559 -0.0168838 -0.190415 -0.0674614 0.239301 0.968599 -0.269971 0.848432 0.455279 -0.270016 0.745332 0.609567 0.323009 0.542211 0.775676 -0.119164 -0.792715 0.597832 0.121082 -0.0124506 0.992564 -0.526179 -0.819184 -0.228196 0.559915 -0.824473 0.0820963 0.982565 0.183583 -0.0293774 -0.188896 0.856271 -0.480747 -0.608854 0.685687 -0.398911 0.726565 0.569965 0.383724 0.698931 -0.714407 -0.033433 -0.603344 -0.72289 -0.336758 -0.849382 -0.504239 -0.155863 0.112758 0.992372 -0.0498365 0.906474 -0.382198 -0.179525 0.00324719 -0.834326 0.551261 -0.218394 -0.49707 0.839777 0.987604 0.0597494 0.14515 -0.636768 -0.715826 -0.286565 0.24828 -0.776893 0.578614 0.916049 0.331378 -0.225928 -0.486349 0.811116 0.324894 -0.621726 -0.762137 0.180565 -0.78834 -0.201776 -0.581211 -0.0143083 -0.823626 0.566953 0.823324 -0.512395 0.244109 0.171612 0.985139 0.00715264 -0.656115 0.73516 -0.170449 0.674671 0.713235 0.190042 0.687556 0.713963 -0.132377 -0.9169 -0.357877 0.176687 0.70505 -0.268156 0.656504 -0.152096 0.98487 -0.0830555 0.55548 0.150172 -0.817857 0.803773 -0.586928 -0.0972862 -0.751643 0.648337 -0.121211 0.988609 -0.0836562 -0.125119 0.307385 -0.935829 -0.172448 -0.968879 -0.134314 0.207926 -0.70505 0.268156 -0.656504 -0.235768 -0.971327 -0.0306043 0.0995281 0.984154 0.14675 -0.888399 -0.401832 0.221988 0.39297 0.917645 0.0591777 0.99144 0.104706 0.0779932 0.455532 0.883463 -0.109468 0.892978 0.354606 0.277209 -0.21136 0.957038 0.198509 0.502556 -0.698261 0.509774 -0.165523 0.975265 -0.146496 0.698897 -0.714494 -0.0322544 -0.217887 -0.975864 -0.0146575 -0.778355 -0.599459 0.186578 -0.891185 -0.366979 0.266674 -0.954017 0.0127588 -0.299479 -0.378916 0.91465 -0.140848 -0.0545672 -0.980803 -0.18721 0.0178913 -0.822307 -0.568762 -0.980139 -0.197543 -0.0174497 0.114896 -0.992732 -0.0358147 0.543886 0.816575 0.193372 0.837962 0.52512 0.148556 -0.153285 0.946244 -0.284826 -0.101471 -0.994628 -0.0204614 0.406156 -0.679678 0.610799 0.379337 0.811301 -0.444854 0.811397 -0.556275 -0.179425 0.481981 0.830139 -0.280294 -0.401527 -0.915727 -0.0148423 -0.792385 0.561899 -0.237478 0.320624 0.670756 -0.668795 0.379337 0.811301 -0.444854 0.982985 0.135359 -0.124173 -0.80082 0.566604 0.194028 -0.274933 0.747646 0.604514 0.792385 -0.561899 0.237478 0.935568 -0.279363 0.21603 -0.415186 0.907937 -0.0571899 0.459315 -0.862579 -0.212102 -0.981101 0.15224 0.119428 -0.34044 -0.940266 -0.000865398 -0.946886 -0.258365 -0.191452 0.986457 -0.0698482 -0.148402 -0.269971 0.848432 0.455279 -0.616291 -0.783365 0.0807693 -0.187376 -0.0775088 -0.979226 -0.00729871 -0.980563 -0.196069 -0.0674614 0.239301 0.968599 0.59838 0.790869 0.128328 0.94693 0.204519 -0.247982 -0.981559 -0.0168838 -0.190415 -0.85231 0.497883 -0.160251 0.920301 -0.37262 0.11917 -0.154748 -0.967226 0.201311 0.0452922 -0.997058 -0.0618332 0.977157 0.0977671 -0.188696 0.0736618 0.98142 -0.17717 0.616291 0.783365 -0.0807693 0.759371 -0.057571 0.648106 -0.955574 -0.294636 -0.00820102 -0.442669 -0.894684 -0.0598817 0.852002 -0.164656 0.496972 0.293509 0.95321 0.072411 0.893483 0.3734 0.24952 0.797351 0.481068 -0.364424 0.84838 -0.505464 0.157348 0.854185 -0.164751 -0.493179 -0.216489 0.971626 0.0952651 0.208857 -0.976395 -0.0550548 -0.492248 0.0332969 0.869818 -0.987604 -0.0597494 -0.14515 0.114896 -0.992732 -0.0358147 0.301527 0.953448 -0.00425297 0.165092 -0.977881 -0.128429 -0.957565 0.278247 -0.07515 -0.958724 0.283097 -0.0265293 0.59838 0.790869 0.128328 -0.85231 0.497883 -0.160251 -0.848607 -0.517104 0.111673 -0.959923 0.248221 0.130129 -0.216489 0.971626 0.0952651 0.543886 0.816575 0.193372 -0.966927 0.244724 0.0718467 -0.935392 -0.35185 -0.0352586 -0.471764 0.876106 -0.0993821 0.543445 0.821644 -0.171956 -0.15104 -0.615516 -0.773516 0.432051 -0.0167575 0.901693 0.982407 0.177093 0.0592776 -0.759029 0.282582 0.586534 0.616291 0.783365 -0.0807693 -0.144064 0.947002 -0.287112 -0.320624 -0.670756 0.668795 0.374421 -0.923235 -0.086294 0.938982 0.340745 -0.0469683 0.974515 0.223286 -0.0215452 0.891185 0.366979 -0.266674 0.476065 -0.879088 -0.0237865 -0.389227 0.913794 -0.116116 0.979965 -0.150629 -0.13031 0.652468 -0.744957 -0.13901 -0.622171 -0.760996 0.183817 0.377541 -0.92592 0.0116031 0.370037 -0.92697 0.0616404 -0.833494 -0.548757 0.0644527 0.235768 0.971327 0.0306043 0.913153 -0.405778 0.0386876 0.973528 0.228564 0.00090529 0.605305 0.794866 -0.0423514 -0.655739 0.754728 0.0197869 -0.814544 0.568301 -0.116408 -0.616291 -0.783365 0.0807693 0.97625 0.15749 0.148773 0.0995281 0.984154 0.14675 -0.621726 -0.762137 0.180565 -0.800526 -0.571509 -0.180376 -0.944607 0.261047 0.198927 0.984985 0.126089 0.117921 -0.33423 0.567596 -0.752413 -0.11034 0.95549 0.273614 0.970015 0.197692 -0.141381 -0.771836 0.63582 0.00140655 -0.768331 0.640053 0.000458566 -0.291581 -0.956512 0.0081233 0.741378 -0.671081 -0.0030399 -0.722161 -0.676702 -0.143382 0.982609 0.154435 -0.103102 -0.930631 -0.36475 -0.0297142 -0.717934 -0.681961 -0.139642 -0.625651 -0.777439 -0.064422 0.206317 -0.97011 0.127751 -0.89606 0.434897 -0.0891108 0.573584 0.793975 0.201509 -0.227926 -0.545352 -0.806623 -0.276149 0.956307 -0.0960168 -0.11034 0.95549 0.273614 -0.768719 0.599582 -0.222649 -0.221511 0.965583 0.136315 -0.0886884 -0.767281 -0.635149 0.391151 -0.914844 0.10031 0.0773239 0.955741 -0.283865 0.264193 0.961218 -0.0791303 0.957482 -0.288228 -0.0123986 0.413822 0.909536 0.0386721 0.857084 0.509821 -0.0740903 -0.771068 0.635792 -0.0349694 -0.941604 -0.331196 0.0607484 0.994856 0.0146846 -0.100229 0.908822 -0.416494 -0.023977 -0.616161 -0.783453 0.0809153 -0.766719 0.606671 -0.209982</float_array>
                    <technique_common>
                        <accessor count="199" source="#shape0-lib-normals-array" stride="3">
                            <param name="X" type="float"/>
                            <param name="Y" type="float"/>
                            <param name="Z" type="float"/>
                        </accessor>
                    </technique_common>
                </source>
                <source id="shape0-lib-map" name="map">
                    <float_array id="shape0-lib-map-array" count="1194">0.8397 0.4609 0.8385 0.4609 0.8393 0.4599 0.8787 0.4712 0.8769 0.4727 0.8764 0.4721 0.8797 0.477 0.8807 0.4763 0.8812 0.4767 0.8777 0.4747 0.8774 0.4745 0.8776 0.4731 0.8781 0.4755 0.8785 0.4757 0.8786 0.4764 0.911 0.4679 0.9103 0.4674 0.9112 0.4666 0.9047 0.4684 0.9036 0.4675 0.906 0.4659 0.9198 0.4802 0.919 0.4767 0.9196 0.4763 0.9198 0.4802 0.9201 0.4832 0.9193 0.4832 0.8166 0.06686 0.8203 0.06656 0.8198 0.07846 0.8186 0.1095 0.8237 0.1051 0.8226 0.1169 0.3179 0.8912 0.3306 0.9018 0.3242 0.9048 0.3378 0.9514 0.3319 0.9545 0.3294 0.9493 0.3294 0.9493 0.3226 0.9528 0.3191 0.9459 0.3253 0.9576 0.3186 0.9607 0.3158 0.9565 0.2952 0.9762 0.2935 0.978 0.2893 0.9739 0.8396 0.4668 0.8413 0.4666 0.8418 0.4695 0.3577 0.9436 0.3596 0.9489 0.3561 0.9488 0.8775 0.2188 0.872 0.201 0.8821 0.1991 0.8048 0.1811 0.7807 0.1891 0.7736 0.1708 0.7651 0.4314 0.7743 0.4365 0.7707 0.4504 0.04134 0.5735 0.04172 0.5666 0.0479399 0.568 0.02003 0.5858 0.02071 0.5817 0.02727 0.5845 0.04137 0.5776 0.0448 0.578 0.04428 0.58 0.05121 0.5909 0.05013 0.5909 0.05028 0.5893 0.03597 0.5861 0.0352 0.5875 0.03419 0.587 0.04279 0.5881 0.04257 0.5879 0.04376 0.5865 0.04348 0.5848 0.0445599 0.585 0.04376 0.5865 0.2636 0.9445 0.2643 0.9372 0.2724 0.9424 0.1686 0.7674 0.1539 0.7722 0.152 0.7647 0.4913 0.04176 0.4888 0.04099 0.4896 0.03944 0.5017 0.03801 0.5004 0.03744 0.5012 0.03452 0.3703 0.1626 0.3719 0.164 0.3687 0.1636 0.376 0.1625 0.3768 0.1635 0.3748 0.1637 0.3921 0.1607 0.3925 0.1622 0.3913 0.1623 0.4882 0.03572 0.4879 0.03719 0.4861 0.0363 0.4904 0.0442899 0.4876 0.04345 0.4888 0.04099 0.4931 0.02553 0.4935 0.02452 0.4958 0.0255099 0.4505 0.02616 0.4522 0.0296 0.45 0.0305599 0.3917 0.1276 0.3912 0.1306 0.3899 0.1304 0.444 0.01949 0.4444 0.0190099 0.4456 0.01941 0.45 0.0175 0.4502 0.0156799 0.4512 0.0172 0.4608 0.03394 0.4599 0.03196 0.4611 0.03145 0.3793 0.09492 0.3784 0.09623 0.3764 0.09478 0.4205 0.05142 0.4196 0.05072 0.4209 0.0489499 0.4237 0.0541 0.4225 0.05574 0.4211 0.05458 0.3843 0.1048 0.3834 0.106 0.3814 0.1048 0.4155 0.0886699 0.4173 0.08964 0.4163 0.09092 0.4138 0.1 0.4123 0.1015 0.4114 0.1003 0.4181 0.08158 0.4179 0.08309 0.417 0.08289 0.417 0.08289 0.4169 0.08443 0.4159 0.0842 0.413 0.08887 0.4123 0.08841 0.4129 0.0874399 0.534 0.06574 0.5336 0.06648 0.5312 0.06513 0.4267 0.1845 0.4262 0.1852 0.4234 0.183 0.5368 0.05748 0.5339 0.05648 0.5353 0.0545699 0.4346 0.05427 0.4339 0.05559 0.4297 0.05306 0.4228 0.05006 0.4219 0.04954 0.4227 0.0481099 0.4129 0.0874399 0.4113 0.08676 0.4119 0.08585 0.5036 0.01488 0.5041 0.01555 0.5035 0.0158099 0.3976 0.1238 0.3973 0.1257 0.3923 0.1248 0.3843 0.1243 0.3809 0.1239 0.3814 0.1224 0.4206 0.1067 0.4186 0.108 0.4188 0.1066 0.4094 0.0937 0.4083 0.09496 0.4077 0.09411 0.4039 0.157 0.4074 0.155 0.4054 0.159 0.1359 0.8652 0.1362 0.8691 0.1285 0.8669 0.1081 0.7941 0.1037 0.7949 0.1041 0.7871 0.1042 0.8191 0.09912 0.8203 0.09996 0.8134 0.07691 0.8518 0.0771699 0.8557 0.06432 0.8535 0.01025 0.8468 0.00973696 0.8447 0.01342 0.8447 0.5149 0.06615 0.5166 0.06812 0.5147 0.06898 0.448 0.1356 0.4489 0.1289 0.4549 0.1323 0.5066 0.06653 0.5096 0.06779 0.5089 0.0715 0.9443 0.4179 0.9494 0.413 0.9546 0.4239 0.8186 0.1095 0.812 0.1098 0.8102 0.0928399 0.1452 0.8755 0.1454 0.879 0.1375 0.8773 0.4714 0.1109 0.4762 0.1172 0.4726 0.1204 0.5313 0.1191 0.5284 0.1228 0.525 0.1189 0.05094 0.861 0.05059 0.8642 0.03895 0.8605 0.1247 0.809 0.118 0.8098 0.1172 0.802 0.4847 0.124 0.4818 0.1197 0.4847 0.118 0.8452 0.4498 0.8456 0.4498 0.8452 0.4525 0.844 0.4549 0.8443 0.4552 0.8435 0.4567 0.8413 0.4412 0.8418 0.4409 0.8432 0.4421 0.831 0.4406 0.8295 0.444 0.8288 0.4436 0.1442 0.0140499 0.1439 0.01724 0.1413 0.0156 0.078 0.01413 0.07822 0.01352 0.0787 0.01364 0.8745 0.4803 0.8746 0.4816 0.873 0.4816 0.8734 0.4729 0.873 0.4758 0.8717 0.4753 0.8794 0.2785 0.8766 0.2583 0.8881 0.2591 0.8957 0.4317 0.8888 0.4358 0.8863 0.4283 0.9263 0.4793 0.9248 0.474 0.9262 0.4729 0.8974 0.472 0.8961 0.4712 0.8989 0.469 0.8033 0.3829 0.8165 0.3759 0.8196 0.3812 0.8413 0.3538 0.8458 0.3541 0.8444 0.3571 0.8554 0.3521 0.8506 0.3535 0.851 0.3515 0.8599 0.3503 0.858 0.3493 0.8622 0.3459 0.8354 0.3437 0.8363 0.3454 0.8355 0.3455 0.8441 0.3472 0.8415 0.3465 0.8436 0.3456 0.8545 0.3462 0.8538 0.346 0.8547 0.3451 0.8473 0.3399 0.8463 0.3401 0.8466 0.3388 0.8424 0.3411 0.8424 0.3402 0.8437 0.3413 0.844 0.3434 0.8448 0.3437 0.8437 0.3442 0.8423 0.3485 0.845 0.3494 0.8444 0.3501 0.8563 0.3384 0.8541 0.3388 0.853 0.3379 0.8465 0.3231 0.8516 0.3226 0.8492 0.3287 0.7728 0.3286 0.771 0.3459 0.7545 0.3472 0.745 0.1823 0.7736 0.1708 0.7807 0.1891 0.1488 0.02764 0.1463 0.02816 0.1464 0.02717 0.05379 0.03859 0.05387 0.03699 0.0567 0.03749 0.1792 0.04277 0.1788 0.04472 0.1763 0.04413 0.175 0.05056 0.1791 0.04987 0.1791 0.05106 0.1852 0.1399 0.1871 0.1473 0.1829 0.1476 0.05019 0.168 0.04989 0.1604 0.05492 0.1615 0.03865 0.153 0.03335 0.1528 0.03473 0.1476 0.1336 0.1696 0.1354 0.1896 0.1303 0.1894 0.07029 0.1208 0.07407 0.1173 0.07707 0.1248 0.1041 0.12 0.1076 0.1169 0.1138 0.1234 0.2133 0.1446 0.2161 0.1506 0.2117 0.1522 0.1677 0.1041 0.1711 0.1042 0.1706 0.1149 0.1483 0.09674 0.1479 0.1072 0.1448 0.1058 0.1487 0.1261 0.148 0.1283 0.1454 0.1272 0.1443 0.0352 0.1444 0.03253 0.146 0.03276 0.1722 0.07543 0.17 0.089 0.1672 0.08846 0.1559 0.02995 0.1567 0.0284899 0.1585 0.0293299 0.07258 0.02322 0.07225 0.0258199 0.06922 0.02445 0.08197 0.01521 0.07927 0.01618 0.07934 0.0151999 0.04851 0.0268 0.04836 0.02509 0.05077 0.02506 0.1792 0.04277 0.1773 0.0422 0.178 0.04118 0.1078 0.02983 0.1049 0.0283599 0.106 0.0262599 0.05752 0.0315 0.0596099 0.03749 0.0567 0.03749 0.03396 0.0375799 0.03438 0.03704 0.03472 0.03724 0.1222 0.0577299 0.1259 0.05648 0.1273 0.06458 0.02438 0.05924 0.0236 0.05819 0.02416 0.05805 0.0267 0.05666 0.02639 0.05763 0.02574 0.05756 0.1175 0.02241 0.1153 0.0241 0.114 0.02067 0.1849 0.05669 0.184 0.0573299 0.1837 0.05574 0.2208 0.1702 0.2117 0.1522 0.2161 0.1506 0.05422 0.02304 0.05514 0.0226 0.05555 0.0233999 0.1886 0.05706 0.1911 0.05619 0.1911 0.05762 0.831 0.5213 0.8302 0.5218 0.8296 0.5184 0.7012 0.6133 0.7099 0.575 0.7255 0.5835 0.8632 0.4861 0.8659 0.4858 0.866 0.488 0.8633 0.4886 0.866 0.488 0.8663 0.4905 0.8788 0.4865 0.881 0.487 0.8805 0.4878 0.8812 0.4896 0.8807 0.4901 0.8797 0.4893 0.8773 0.4897 0.8778 0.4892 0.878 0.4901 0.8793 0.4918 0.8799 0.491 0.8802 0.4917 0.9093 0.4996 0.9096 0.4996 0.9096 0.5005 0.8966 0.03796 0.9006 0.0431 0.8968 0.04553 0.9771 0.5061 0.9778 0.4926 0.9921 0.4974 0.4232 0.9514 0.4255 0.9454 0.4317 0.9493 0.4605 0.9238 0.4732 0.913 0.4779 0.9197 0.4385 0.9528 0.442 0.9459 0.4492 0.9505 0.4613 0.947 0.471 0.9368 0.4764 0.9438 0.7465 0.6673 0.7289 0.6766 0.7211 0.6484 0.4482 0.9641 0.4463 0.9668 0.4407 0.9641 0.3912 0.8704 0.3986 0.8704 0.394 0.8883 0.4066 0.9439 0.4049 0.9488 0.4015 0.9489 0.8058 0.6819 0.7946 0.6745 0.8044 0.6623 0.7781 0.7234 0.7612 0.7128 0.7723 0.6995 0.9593 0.5117 0.9611 0.5 0.9679 0.5023 0.3826 0.9514 0.3805 0.9522 0.3805 0.946 0.3928 0.9435 0.3937 0.9319 0.3978 0.9324 0.4052 0.9339 0.408 0.9231 0.4113 0.9244 0.841 0.525 0.8413 0.5251 0.8407 0.5255 0.8379 0.5252 0.8385 0.5252 0.8385 0.526 0.8361 0.5133 0.8338 0.5127 0.8358 0.5102 0.1419 0.5997 0.1491 0.5993 0.1485 0.6041 0.1109 0.5932 0.1122 0.5958 0.1101 0.5968 0.1142 0.5981 0.1122 0.5958 0.1134 0.595 0.1293 0.5912 0.1306 0.5913 0.1303 0.5931 0.1238 0.5972 0.1232 0.5962 0.1246 0.5955 0.1167 0.595 0.1153 0.5938 0.1164 0.5931 0.1142 0.5871 0.115 0.5859 0.116 0.5867 0.1216 0.591 0.1237 0.5919 0.1232 0.5925 0.117 0.5907 0.1169 0.5899 0.1192 0.5902 0.5115 0.9473 0.505 0.9488 0.5046 0.9412 0.5902 0.778 0.5925 0.7674 0.6072 0.7722 0.6367 0.03795 0.6387 0.0368299 0.6394 0.0385 0.7444 0.1571 0.7454 0.1574 0.745 0.1593 0.7443 0.1532 0.7439 0.1546 0.7397 0.1531 0.7587 0.1572 0.7587 0.1583 0.7582 0.1581 0.626 0.01428 0.6266 0.01644 0.6259 0.0163 0.6241 0.01835 0.6221 0.0202 0.6212 0.01813 0.7507 0.1565 0.7503 0.1586 0.747 0.1578 0.6349 0.02324 0.6332 0.02407 0.6327 0.0229599 0.7421 0.1326 0.7455 0.1312 0.7459 0.133 0.7438 0.1254 0.7444 0.1275 0.7411 0.1284 0.6798 0.03512 0.6771 0.03464 0.6786 0.03134 0.6789 0.0249799 0.6804 0.02556 0.6799 0.02663 0.7347 0.1241 0.7351 0.1267 0.7338 0.1267 0.7507 0.09704 0.7499 0.09789 0.7492 0.09655 0.7145 0.04705 0.7128 0.04817 0.7129 0.0473 0.7047 0.0476299 0.7058 0.04685 0.7065 0.04876 0.6822 0.05765 0.6817 0.05573 0.6852 0.05485 0.707 0.05444 0.7085 0.05308 0.7098 0.0540799 0.733 0.1095 0.7368 0.1069 0.7378 0.1083 0.7136 0.1089 0.7152 0.1079 0.7159 0.1104 0.7121 0.04218 0.713 0.04357 0.7123 0.04412</float_array>
                    <technique_common>
                        <accessor count="597" source="#shape0-lib-map-array" stride="2">
                            <param name="U" type="float"/>
                            <param name="V" type="float"/>
                        </accessor>
                    </technique_common>
                </source>
                <vertices id="shape0-lib-vertices">
                    <input semantic="POSITION" source="#shape0-lib-positions"/>
                </vertices>
                <triangles count="199">
                    <input offset="0" semantic="VERTEX" source="#shape0-lib-vertices"/>
                    <input offset="1" semantic="NORMAL" source="#shape0-lib-normals"/>
                    <input offset="2" semantic="TEXCOORD" source="#shape0-lib-map"/>
                    <p>18 0 0 0 0 1 24 0 2 14 1 3 27 1 4 1 1 5 27 2 6 21 2 7 1 2 8 27 3 9 28 3 10 21 3 11 21 4 12 28 4 13 31 4 14 31 5 15 28 5 16 19 5 17 27 6 18 28 6 19 21 6 20 32 7 21 28 7 22 27 7 23 22 8 24 15 8 25 19 8 26 34 9 27 22 9 28 30 9 29 16 10 30 36 10 31 33 10 32 26 11 33 30 11 34 22 11 35 37 12 36 16 12 37 12 12 38 29 13 39 30 13 40 20 13 41 30 14 42 29 14 43 25 14 44 17 15 45 34 15 46 25 15 47 13 16 48 35 16 49 57 16 50 44 17 51 45 17 52 50 17 53 23 18 54 49 18 55 20 18 56 57 19 57 36 19 58 37 19 59 57 20 60 69 20 61 36 20 62 35 21 63 45 21 64 47 21 65 50 22 66 20 22 67 49 22 68 33 23 69 36 23 70 26 23 71 19 24 72 16 24 73 33 24 74 13 25 75 37 25 76 57 25 77 36 26 78 16 26 79 37 26 80 30 27 81 26 27 82 23 27 83 17 28 84 50 28 85 45 28 86 64 29 87 57 29 88 47 29 89 68 30 90 66 30 91 69 30 92 51 31 93 38 31 94 62 31 95 23 32 96 26 32 97 36 32 98 50 33 99 49 33 100 38 33 101 35 34 102 22 34 103 45 34 104 13 35 105 15 35 106 35 35 107 34 36 108 30 36 109 25 36 110 45 37 111 34 37 112 17 37 113 21 38 114 28 38 115 31 38 116 18 39 117 24 39 118 31 39 119 5 40 120 84 40 121 77 40 122 3 41 123 10 41 124 4 41 125 79 42 126 78 42 127 52 42 128 6 43 129 11 43 130 8 43 131 87 44 132 63 44 133 46 44 134 29 45 135 20 45 136 48 45 137 24 46 138 19 46 139 33 46 140 31 47 141 24 47 142 18 47 143 43 48 144 48 48 145 51 48 146 54 49 147 47 49 148 45 49 149 3 50 150 7 50 151 10 50 152 55 51 153 76 51 154 11 51 155 14 52 156 27 52 157 1 52 158 63 53 159 56 53 160 62 53 161 82 54 162 90 54 163 74 54 164 22 55 165 35 55 166 15 55 167 82 56 168 89 56 169 90 56 170 72 57 171 73 57 172 56 57 173 20 58 174 30 58 175 23 58 176 29 59 177 48 59 178 43 59 179 37 60 180 12 60 181 71 60 182 43 61 183 51 61 184 53 61 185 73 62 186 40 62 187 41 62 188 13 63 189 12 63 190 15 63 191 69 64 192 66 64 193 70 64 194 33 65 195 26 65 196 18 65 197 17 66 198 48 66 199 20 66 200 70 67 201 49 67 202 69 67 203 45 68 204 44 68 205 58 68 206 51 69 207 62 69 208 44 69 209 25 70 210 48 70 211 17 70 212 69 71 213 23 71 214 36 71 215 89 72 216 82 72 217 81 72 218 14 73 219 19 73 220 32 73 221 40 74 222 79 74 223 52 74 224 27 75 225 14 75 226 32 75 227 79 76 228 86 76 229 85 76 230 67 77 231 39 77 232 71 77 233 46 78 234 51 78 235 53 78 236 19 79 237 32 79 238 14 79 239 17 80 240 20 80 241 50 80 242 83 81 243 55 81 244 11 81 245 14 82 246 22 82 247 19 82 248 71 83 249 39 83 250 67 83 251 51 84 252 50 84 253 38 84 254 13 85 255 61 85 256 12 85 257 79 86 258 85 86 259 78 86 260 74 87 261 89 87 262 81 87 263 82 88 264 60 88 265 88 88 266 40 89 267 2 89 268 60 89 269 37 90 270 61 90 271 13 90 272 32 91 273 28 91 274 27 91 275 18 92 276 0 92 277 24 92 278 74 93 279 90 93 280 89 93 281 60 94 282 87 94 283 59 94 284 21 95 285 27 95 286 28 95 287 62 96 288 58 96 289 44 96 290 26 97 291 22 97 292 14 97 293 19 98 294 31 98 295 28 98 296 28 99 297 32 99 298 19 99 299 87 100 300 80 100 301 63 100 302 1 101 303 31 101 304 0 101 305 31 102 306 1 102 307 21 102 308 52 103 309 78 103 310 76 103 311 10 104 312 9 104 313 4 104 314 24 105 315 0 105 316 18 105 317 4 106 318 9 106 319 7 106 320 86 107 321 65 107 322 83 107 323 66 108 324 86 108 325 79 108 326 3 109 327 4 109 328 7 109 329 80 110 330 5 110 331 72 110 332 51 111 333 44 111 334 50 111 335 54 112 336 41 112 337 55 112 338 14 113 339 18 113 340 26 113 341 14 114 342 0 114 343 18 114 344 64 115 345 47 115 346 54 115 347 37 116 348 71 116 349 67 116 350 19 117 351 15 117 352 16 117 353 37 118 354 13 118 355 57 118 356 69 119 357 70 119 358 49 119 359 80 120 360 84 120 361 5 120 362 23 121 363 69 121 364 49 121 365 88 122 366 2 122 367 77 122 368 6 123 369 83 123 370 11 123 371 62 124 372 58 124 373 44 124 374 28 125 375 32 125 376 19 125 377 9 126 378 10 126 379 7 126 380 12 127 381 16 127 382 15 127 383 64 128 384 47 128 385 54 128 386 44 129 387 58 129 388 45 129 389 64 130 390 68 130 391 57 130 392 86 131 393 83 131 394 85 131 395 34 132 396 45 132 397 22 132 398 56 133 399 58 133 400 62 133 401 19 134 402 24 134 403 31 134 404 1 135 405 27 135 406 21 135 407 25 136 408 29 136 409 43 136 410 68 137 411 47 137 412 64 137 413 24 138 414 0 138 415 18 138 416 25 139 417 43 139 418 48 139 419 46 140 420 53 140 421 51 140 422 38 141 423 49 141 424 70 141 425 61 142 426 37 142 427 67 142 428 82 143 429 74 143 430 81 143 431 51 144 432 43 144 433 53 144 434 59 145 435 87 145 436 46 145 437 56 146 438 73 146 439 41 146 440 14 147 441 1 147 442 0 147 443 70 148 444 42 148 445 49 148 446 68 149 447 69 149 448 57 149 449 66 150 450 79 150 451 40 150 452 59 151 453 46 151 454 70 151 455 66 152 456 65 152 457 86 152 458 43 153 459 51 153 460 48 153 461 87 154 462 75 154 463 80 154 464 46 155 465 63 155 466 62 155 467 56 156 468 63 156 469 72 156 470 65 157 471 55 157 472 83 157 473 12 158 474 61 158 475 71 158 476 0 159 477 24 159 478 18 159 479 42 160 480 62 160 481 44 160 482 54 161 483 47 161 484 45 161 485 69 162 486 68 162 487 66 162 488 65 163 489 66 163 490 68 163 491 68 164 492 64 164 493 65 164 494 42 165 495 46 165 496 62 165 497 41 166 498 54 166 499 56 166 500 45 167 501 58 167 502 54 167 503 41 168 504 52 168 505 76 168 506 73 169 507 2 169 508 40 169 509 73 170 510 5 170 511 2 170 512 82 171 513 87 171 514 60 171 515 82 172 516 75 172 517 87 172 518 7 173 519 85 173 520 6 173 521 75 174 522 84 174 523 80 174 524 85 175 525 83 175 526 6 175 527 59 176 528 40 176 529 60 176 530 59 177 531 70 177 532 40 177 533 78 178 534 85 178 535 7 178 536 64 179 537 55 179 538 65 179 539 80 180 540 72 180 541 63 180 542 0 181 543 31 181 544 24 181 545 64 182 546 54 182 547 55 182 548 58 183 549 54 183 550 45 183 551 71 184 552 61 184 553 67 184 554 73 185 555 72 185 556 5 185 557 70 186 558 66 186 559 40 186 560 46 187 561 42 187 562 70 187 563 58 188 564 56 188 565 54 188 566 55 189 567 41 189 568 76 189 569 76 190 570 78 190 571 4 190 572 76 191 573 8 191 574 11 191 575 8 192 576 76 192 577 4 192 578 5 193 579 77 193 580 2 193 581 2 194 582 88 194 583 60 194 584 40 195 585 52 195 586 41 195 587 4 196 588 78 196 589 7 196 590 24 197 591 33 197 592 18 197 593 57 198 594 35 198 595 47 198 596</p>
                </triangles>
            </mesh>
        </geometry>
    </library_geometries>
    <library_visual_scenes>
        <visual_scene id="VisualSceneNode" name="VisualScene">
            <node id="node" name="node">
                <instance_geometry url="#shape0-lib"/>
            </node>
        </visual_scene>
    </library_visual_scenes>
    <scene>
        <instance_visual_scene url="#VisualSceneNode"/>
    </scene>
</COLLADA>
